<?xml version="1.0" encoding="utf-8"?>
<!-- Generator: Adobe Illustrator 27.5.0, SVG Export Plug-In . SVG Version: 6.00 Build 0)  -->
<svg version="1.1" id="Capa_1" xmlns="http://www.w3.org/2000/svg" xmlns:xlink="http://www.w3.org/1999/xlink" x="0px" y="0px"
	 viewBox="0 0 2204 2043" style="enable-background:new 0 0 2204 2043;" xml:space="preserve">
<g id="_x23_e1c2a6ff">
</g>
<path style="fill:#FAD5D3;" d="M1981.968,1001.27c-2.928-59.173-15.104-109.992-33.277-153.838
	c-14.509-34.998-32.885-65.462-53.579-92.059c-96.32-123.759-242.721-163.249-282.223-179.107
	c-9.411-3.778-19.406-7.176-29.562-10.557c5.728-10.357,10.185-20.484,14.403-31.395c0.739-1.771,1.483-3.689,2.219-5.681
	c0.245-0.656,0.488-1.352,0.731-2.032c0.501-1.397,1.002-2.834,1.503-4.325c0.278-0.823,0.552-1.65,0.825-2.503
	c0.506-1.559,1.017-3.176,1.518-4.823c0.235-0.779,0.47-1.533,0.714-2.335c0.688-2.3,1.369-4.684,2.05-7.139
	c0.324-1.161,0.637-2.374,0.959-3.568c0.387-1.432,0.767-2.864,1.146-4.334c0.372-1.432,0.744-2.887,1.119-4.357
	c0.314-1.278,0.627-2.571,0.951-3.879c0.395-1.63,0.795-3.254,1.189-4.929c0.2-0.835,0.395-1.698,0.587-2.543
	c0.972-4.193,1.938-8.484,2.885-12.898c0.071-0.329,0.144-0.653,0.215-0.984c0.516-2.389,1.017-4.813,1.526-7.255
	c0.117-0.562,0.227-1.121,0.344-1.685c2.829-13.829,5.521-28.45,8.034-43.334v-0.007c12.918-76.578,20.876-160.038,15.985-177.07
	c-7.979-27.822-198.465-4.563-262.342,4.563c-34.74,5.144-71.39,11.081-103.651,25.064c4.312,3.834,5.413,11.174-1.174,14.434
	c-78.26,38.685-118.919,141.965-98.853,224.996c19.398,80.254,66.707,154.066,143.292,189.643
	c10.714,4.972,1.397,20.775-9.251,15.825c-84.738-39.36-144.848-130.943-155.812-223.146
	c-9.16-77.045,25.016-165.597,90.376-210.585c-117.881-41.899-257.797-39.859-389.449-25.294c-0.013,4.585-2.963,9.352-8.828,9.73
	c-139.235,8.965-280.46,47.185-389.181,138.451c-75.003,62.964-130.252,142.664-171.984,230.714
	c-2.611,5.519-8.082,5.676-12.08,3.095c-3.73-2.414-6.172-7.217-3.745-12.346c32.47-68.531,73.594-133.37,125.622-188.305
	c-5.063-8.555-10.784-16.7-17.073-24.403c-3.15,1.66-7.154,1.744-10.557-1.24c-69.275-60.8-154.643-96.834-246.8-102.79
	c-5.086-0.328-7.971-3.957-8.659-7.905c-10.152,5.681-9.322,26.43-10.742,36.727c-3.009,21.885-6.172,43.925-6.966,66.028
	c-0.167,4.636-0.109,9.236,0.02,13.823c2.505,14.889,5.208,29.513,8.037,43.338c0.111,0.564,0.228,1.124,0.341,1.681
	c0.503,2.441,1.017,4.866,1.526,7.255c0.066,0.331,0.142,0.655,0.208,0.984c0.951,4.413,1.918,8.705,2.894,12.898
	c0.193,0.845,0.385,1.708,0.587,2.543c0.392,1.675,0.787,3.3,1.189,4.929c0.314,1.308,0.635,2.601,0.957,3.879
	c0.367,1.47,0.739,2.925,1.103,4.357c0.387,1.47,0.766,2.903,1.153,4.334c0.324,1.194,0.638,2.407,0.959,3.568
	c0.68,2.45,1.361,4.823,2.042,7.118c0.243,0.822,0.494,1.597,0.739,2.398c0.501,1.632,0.992,3.237,1.496,4.78
	c0.278,0.853,0.559,1.68,0.83,2.503c0.501,1.49,1.005,2.928,1.506,4.325c0.243,0.68,0.486,1.376,0.729,2.032
	c0.739,1.992,1.475,3.909,2.222,5.681c13.684,35.36,29.631,62.468,84.384,116.077c1.928,1.883,3.983,3.687,6.119,5.445
	c0.678,0.559,1.402,1.09,2.105,1.637c1.503,1.179,3.049,2.343,4.646,3.464c0.845,0.6,1.711,1.182,2.586,1.764
	c1.574,1.045,3.178,2.065,4.828,3.059c0.886,0.539,1.761,1.078,2.662,1.597c1.883,1.086,3.826,2.136,5.787,3.158
	c0.686,0.364,1.359,0.744,2.063,1.098c2.257,1.138,4.56,2.232,6.903,3.297c-15.582,17.506-32.799,33.945-47.364,51.681
	C3.052,963.501,136.234,1335.46,381.856,1475.369c10.671,6.075,21.483,11.749,32.389,17.194c2.399-3.75,7.126-6.043,12.131-3.249
	c72.982,40.739,162.695,55.092,244.204,68.488c50.542,8.302,101.33,15.585,152.325,20.603c3.717,0.364,8.209,2.49,8.836,6.726
	c4.641,31.038,9.274,62.073,13.914,93.111c0.208,1.4,0.122,2.695-0.172,3.885c43.369,7.247,237.223,39.676,237.127,40.415
	c12.156-36.286,27.113-95.191,33.695-121.829c24.808,0.564,50.178,0.686,76.039,0.23c0.334-4.309,3.244-8.533,8.765-8.851
	c110.209-6.399,220.648-20.281,328.911-42.149c5.013-1.015,9.717,1.382,11.27,6.402c12.875,41.57,25.608,83.223,38.685,124.754
	c25.58,4.271,243.035,40.603,243.265,41.438c1.604-4.78,3.236-9.813,4.906-15.261c14.099-45.831,118.919-454.526,133.269-510.531
	C1977.299,1140.837,1985.677,1076.109,1981.968,1001.27z"/>
<path style="fill:#FAD5D3;" d="M101.338,335.86c1.419-10.297,0.59-31.046,10.742-36.727c-0.901-5.157,1.964-10.861,8.659-10.428
	c97.218,6.283,186.655,44.002,259.763,108.162c5.478,4.807,2.644,11.539-2.407,14.2c6.288,7.703,12.009,15.848,17.073,24.403
	c19.785-20.891,41.096-40.398,64.194-58.065c19.186-14.676,39.12-27.832,59.609-39.765c-3.287-7.298-6.789-13.821-10.554-19.168
	c-38.45-54.563-106.072-66.155-167.665-75.277c-63.877-9.125-254.366-32.384-262.342-4.563
	c-4.884,17.032,3.062,100.495,15.982,177.07c-0.129-4.583-0.188-9.18-0.02-13.816C95.166,379.785,98.329,357.746,101.338,335.86z"/>
<path style="fill:#FAD5D3;" d="M816.237,1604.556c-0.428-2.88-0.858-5.754-1.288-8.628c-0.301-0.038-0.551-0.068-0.888-0.104
	c-17.022-1.837-34.036-3.821-51.016-6.037c-84.538-11.038-177.799-20.979-261.972-48.574
	c19.193,48.245,42.789,108.762,52.872,139.466c0,0,246.023,41.053,245.793,41.865c7.29-21.774,15.59-51.661,22.493-77.894
	C820.232,1631.284,818.236,1617.921,816.237,1604.556z"/>
<path style="fill:#FAD5D3;" d="M1340.979,1598.204c8.558,26.369,18.619,57.291,26.883,82.474c0,0,133.383,22.257,203.621,34.317
	c-15.542-48.427-30.357-97.109-45.375-145.683C1464.954,1581.41,1403.088,1591.005,1340.979,1598.204z"/>
<path style="fill:#EB9CA3;" d="M2093.91,790.846c9.864,28.998,13.801,60.714,5.122,88.266c-0.845,24.231-14.322,49.08-14.322,49.08
	s35.031-13.538,40.36-51.572C2130.055,840.992,2123.065,807.585,2093.91,790.846z"/>
<path style="fill:#EB9CA3;" d="M2070,895.982c31.46-41.809,9.426-106.128-15.732-145.647c-2.801-4.393-1.305-8.629,1.789-11.156
	c-11.536-11.25-25.514-19.853-41.772-24.441c-36.334-10.25-90.733,10.557-119.175,40.636c20.694,26.597,39.07,57.061,53.579,92.059
	c2.207-8.847,4.719-18.432,8.229-27.526c-4.39-2.105-7.399-7.229-4.241-12.675c16.959-29.281,53.809-49.765,85.492-28.145
	c32.882,22.44,33.004,62.387,14.449,94.516c-3.295,5.704-9.674,5.349-13.649,2.148c-2.955,2.02-6.503,2.72-10.628,1.683
	c-23.761-5.989-2.411-34.353,18.199-41.534c1.976-15.866-2.136-31.747-17.624-40.985c-2.684-1.599-5.349-2.798-7.998-3.732
	c-17.953,11.192-31.911,30.127-41.228,50.826c-30.033,66.727,47.736,121.723,92.501,65.353
	C2068.505,904.981,2066.576,900.53,2070,895.982z"/>
<path style="fill:#F4A8AF;" d="M920.125,906.974c-11.364-24.272-32.564-47.005-60.426-50.231
	c-57.268-9.312-115.64-5.278-173.279-3.155c-44.586,0.883-82.203,34.32-91.441,77.367c-9.094,43.191-16.795,95.988,13.859,132.58
	c25.37,30.14,68.64,27.207,104.278,28.745c53.968-0.88,108.45,2.786,162.057-4.765c31.093-3.009,56.246-31.018,58.888-61.6
	C938.529,986.027,935.598,944.374,920.125,906.974z"/>
<path style="fill:#976162;" d="M665.61,907.123c-5.557,12.883-3.166,29.674-3.386,43.503c0,0.48-0.022,0.951-0.03,1.425
	c-0.387,12.733-1.139,25.132-1.139,37.961c0,13.016-4.054,33.565,7.075,42.797c42.88,35.567,35.203-109.101,30.549-124.152
	C692.938,890.142,673.358,889.163,665.61,907.123z"/>
<path style="fill:#976162;" d="M863.092,952.051c-0.005-0.473-0.028-0.944-0.028-1.425c-0.223-13.829,2.169-30.62-3.388-43.503
	c-7.748-17.961-27.326-16.981-33.07,1.533c-4.654,15.051-12.331,159.719,30.549,124.152c11.128-9.231,7.075-29.78,7.075-42.797
	C864.231,977.183,863.479,964.784,863.092,952.051z"/>
<path style="fill:#F6B8BB;" d="M1312.319,990.171c-18.77-27.865-55.14-38.718-87.116-32.118
	c-28.012,3.006-51.473,23.684-61.742,49.279c-2.348,18.991,9.975,36.666,25.299,46.709c33.801,21.779,80.371,26.4,115.498,4.841
	C1326.105,1043.851,1328.676,1010.192,1312.319,990.171z"/>
<path style="fill:#F6B8BB;" d="M371.908,958.053c-31.974-6.6-68.346,4.254-87.114,32.118c-16.357,20.021-13.786,53.68,8.062,68.711
	c35.127,21.559,81.696,16.939,115.495-4.841c15.327-10.043,27.65-27.718,25.301-46.709
	C423.385,981.738,399.922,961.059,371.908,958.053z"/>
<path style="fill:#996464;" d="M573.225,1748.566c20.717,59.163,38.482,70.93,103.742,67.777c23.733-1.144,69.606,3.325,89.5-12.088
	c14.702-11.394,25.861-59.765,32.842-80.39c0.144-0.428,0.293-0.916,0.438-1.321c0.286-0.802-245.801-41.865-245.801-41.865
	S572.013,1745.114,573.225,1748.566z"/>
<path style="fill:#996464;" d="M839.154,1689.008c4.912,17.482,16.002,56.876,16.944,59.558
	c20.714,59.163,38.482,70.93,103.741,67.777c23.733-1.144,69.607,3.325,89.5-12.088c14.702-11.394,25.861-59.765,32.835-80.39
	c0.141-0.428,0.301-0.916,0.445-1.321c0.258-0.714-193.753-33.166-237.137-40.418
	C844.653,1685.455,842.09,1687.864,839.154,1689.008z"/>
<path style="fill:#996464;" d="M1590.173,1771.893c-6.387-18.91-12.591-37.885-18.689-56.899
	c-70.239-12.06-203.621-34.317-203.621-34.317s18.067,64.436,19.276,67.888c20.719,59.163,38.488,70.93,103.747,67.777
	c23.73-1.144,69.606,3.325,89.5-12.088c5.756-4.461,10.962-14.615,15.597-26.538
	C1593.468,1776.914,1591.246,1775.067,1590.173,1771.893z"/>
<path style="fill:#996464;" d="M1823.241,1722.535c-0.231-0.835-217.686-37.167-243.265-41.438
	c9.054,28.723,18.234,57.405,27.872,85.92c0.974,2.89,0.514,5.342-0.751,7.214c17.617,36.898,39.006,44.74,93.387,42.111
	c23.733-1.144,69.606,3.325,89.5-12.088c15.01-11.63,26.331-61.87,33.28-81.711L1823.241,1722.535z"/>
<path style="fill:#F4A4AF;" d="M395.168,435.472c-5.063-8.555-10.784-16.7-17.073-24.403c-3.15,1.66-7.154,1.744-10.557-1.24
	c-69.275-60.8-154.643-96.834-246.8-102.79c-5.086-0.328-7.971-3.957-8.659-7.905c-10.152,5.681-9.322,26.43-10.742,36.727
	c-3.009,21.885-6.172,43.925-6.966,66.028c-0.167,4.636-0.109,9.236,0.02,13.823c2.505,14.889,5.208,29.513,8.037,43.338
	c0.111,0.564,0.228,1.124,0.341,1.681c0.503,2.441,1.017,4.866,1.526,7.255c0.066,0.331,0.142,0.655,0.208,0.984
	c0.951,4.413,1.918,8.705,2.894,12.898c0.193,0.845,0.385,1.708,0.587,2.543c0.392,1.675,0.787,3.3,1.189,4.929
	c0.314,1.308,0.635,2.601,0.957,3.879c0.367,1.47,0.739,2.925,1.103,4.357c0.387,1.47,0.766,2.903,1.153,4.334
	c0.324,1.194,0.638,2.407,0.959,3.568c0.68,2.45,1.361,4.823,2.042,7.118c0.243,0.822,0.494,1.597,0.739,2.398
	c0.501,1.632,0.992,3.237,1.496,4.78c0.278,0.853,0.559,1.68,0.83,2.503c0.501,1.49,1.005,2.928,1.506,4.325
	c0.243,0.68,0.486,1.376,0.729,2.032c0.739,1.992,1.475,3.909,2.222,5.681c13.684,35.36,29.631,62.468,84.384,116.077
	c1.928,1.883,3.983,3.687,6.119,5.445c0.678,0.559,1.402,1.09,2.105,1.637c1.503,1.179,3.049,2.343,4.646,3.464
	c0.845,0.6,1.711,1.182,2.586,1.764c1.574,1.045,3.178,2.065,4.828,3.059c0.886,0.539,1.761,1.078,2.662,1.597
	c1.883,1.086,3.826,2.136,5.787,3.158c0.686,0.364,1.359,0.744,2.063,1.098c2.257,1.138,4.575,2.219,6.918,3.282
	c10.769-12.105,20.607-24.803,28.285-38.773c-3.73-2.414-6.172-7.217-3.745-12.346C302.016,555.246,343.14,490.407,395.168,435.472z
	"/>
<path style="fill:#F4A4AF;" d="M1619.298,335.86c-1.733-12.612-0.079-40.932-19.398-37.989
	c-35.084,5.339-71.089,11.872-105.837,22.007c1.683,4.559,0.309,10.537-5.627,12.563c-73.553,25.175-153.444,72.099-175.286,152.573
	c-19.894,73.283,7.994,143.335,52.293,201.668c3.307,4.355,1.66,8.616-1.735,11.055c1.118,1.263,2.136,2.627,3.282,3.859
	c46.774-5.362,113.025-18.576,146.351-51.205c37.862-37.068,57.154-61.466,69.986-84.682c5.728-10.357,10.185-20.484,14.403-31.395
	c0.739-1.771,1.483-3.689,2.219-5.681c0.245-0.656,0.488-1.352,0.731-2.032c0.501-1.397,1.002-2.834,1.503-4.325
	c0.278-0.823,0.552-1.65,0.825-2.503c0.506-1.559,1.017-3.176,1.518-4.823c0.235-0.779,0.47-1.533,0.714-2.335
	c0.688-2.3,1.369-4.684,2.05-7.139c0.324-1.161,0.637-2.374,0.959-3.568c0.387-1.432,0.767-2.864,1.146-4.334
	c0.372-1.432,0.744-2.887,1.119-4.357c0.314-1.278,0.627-2.571,0.951-3.879c0.395-1.63,0.795-3.254,1.189-4.929
	c0.2-0.835,0.395-1.698,0.587-2.543c0.972-4.193,1.938-8.484,2.885-12.898c0.071-0.329,0.144-0.653,0.215-0.984
	c0.516-2.389,1.017-4.813,1.526-7.255c0.117-0.562,0.227-1.121,0.344-1.685c2.829-13.829,5.521-28.45,8.034-43.334
	c0.129-4.587,0.185-9.188,0.023-13.823C1625.472,379.785,1622.304,357.746,1619.298,335.86z"/>
<g>
	<path style="fill:#010102;" d="M433.638,907.807c18.247-11.68,7.54-43.495-13.042-42.258c-1.174-0.106-2.475,0.063-3.872,0.579
		c-1.442,0.362-2.617,0.959-3.56,1.718c-11.313,6.124-18.118,19.714-11.814,32.06C407.385,911.741,422.716,914.796,433.638,907.807z
		"/>
	<path style="fill:#010102;" d="M1183.892,866.129c-1.44,0.362-2.622,0.959-3.558,1.718c-11.308,6.124-18.118,19.714-11.825,32.06
		c6.046,11.835,21.377,14.889,32.296,7.9c18.249-11.68,7.551-43.495-13.039-42.258
		C1186.584,865.443,1185.296,865.612,1183.892,866.129z"/>
	<path style="fill:#010102;" d="M831.741,1585.13c-0.628-4.236-5.119-6.362-8.836-6.726c-50.995-5.018-101.783-12.3-152.325-20.603
		c-81.51-13.396-171.223-27.749-244.204-68.488c-5.005-2.794-9.732-0.501-12.131,3.249c-2.541,3.985-2.439,9.613,2.879,12.586
		c26.367,14.714,54.619,26.442,83.949,36.063c84.173,27.594,177.434,37.536,261.972,48.574c16.979,2.216,33.994,4.2,51.016,6.037
		c0.336,0.036,0.587,0.066,0.888,0.104c0.431,2.874,0.861,5.749,1.288,8.628c1.999,13.366,3.995,26.729,5.994,40.094
		c1.913,12.824,3.831,25.646,5.749,38.467c0.941,6.295,6.511,7.708,11.174,5.891c2.936-1.144,5.499-3.553,6.329-6.883
		c0.294-1.189,0.38-2.485,0.172-3.885C841.014,1647.203,836.381,1616.167,831.741,1585.13z"/>
	<path style="fill:#010102;" d="M1579.975,1681.098c-13.077-41.531-25.81-83.184-38.685-124.754
		c-1.554-5.021-6.258-7.417-11.27-6.402c-108.263,21.868-218.702,35.75-328.911,42.149c-5.522,0.319-8.432,4.542-8.765,8.851
		c-0.39,4.864,2.497,9.846,8.765,9.482c46.625-2.707,93.308-6.825,139.87-12.219c62.109-7.199,123.975-16.794,185.129-28.892
		c15.018,48.574,29.834,97.256,45.375,145.683c6.099,19.014,12.303,37.989,18.689,56.899c1.073,3.173,3.295,5.021,5.81,5.823
		c4.044,1.296,8.864-0.15,11.114-3.485c1.265-1.872,1.726-4.325,0.751-7.214C1598.209,1738.503,1589.029,1709.82,1579.975,1681.098z
		"/>
	<path style="fill:#010102;" d="M2038.171,779.085c-31.683-21.62-68.533-1.136-85.492,28.145c-3.158,5.445-0.149,10.57,4.241,12.675
		c3.871,1.855,8.816,1.369,11.584-3.421c11.481-19.828,31.159-32.817,52.415-25.304c2.649,0.934,5.314,2.133,7.998,3.732
		c15.489,9.238,19.601,25.119,17.624,40.985c-1.255,10.053-4.929,20.101-9.747,28.452c-2.622,4.534-0.974,8.862,2.176,11.399
		c3.975,3.201,10.354,3.556,13.649-2.148C2071.174,841.472,2071.053,801.525,2038.171,779.085z"/>
	<path style="fill:#010102;" d="M2070.094,741.084c-3.545-5.577-10.091-5.132-14.036-1.906c-3.094,2.528-4.59,6.764-1.789,11.156
		c25.157,39.52,47.192,103.838,15.732,145.647c-3.424,4.547-1.496,8.998,2.191,11.377c3.975,2.564,9.998,2.713,13.637-2.123
		c6.048-8.042,10.288-16.865,13.203-26.124c8.679-27.552,4.742-59.267-5.122-88.266
		C2087.703,772.582,2079.208,755.401,2070.094,741.084z"/>
	<path style="fill:#010102;" d="M846.536,245.53c-115.344,7.427-228.442,34.363-327.566,92.112
		c-20.489,11.933-40.423,25.089-59.609,39.765c-23.097,17.667-44.408,37.174-64.194,58.065
		c-52.027,54.935-93.152,119.774-125.622,188.305c-2.427,5.129,0.015,9.932,3.745,12.346c3.998,2.581,9.469,2.424,12.08-3.095
		c41.732-88.05,96.98-167.75,171.984-230.714c108.721-91.266,249.946-129.486,389.181-138.451c5.865-0.377,8.816-5.144,8.828-9.73
		C855.38,249.548,852.444,245.148,846.536,245.53z"/>
	<path style="fill:#010102;" d="M1431.54,1306.487c116.09-174.213,156.629-413.048,18.125-586.375
		c-7.384-9.238-20.259,3.823-12.961,12.961c136.885,171.311,86.241,403.24-26.569,572.526
		c-55.092,82.678-128.458,149.782-214.527,199.004c-94.455,54.021-200.828,69.313-308.173,70.477
		c-11.817,0.129-11.832,18.462,0,18.333c111.657-1.207,218.723-18.636,317.424-72.979
		C1297.613,1469.366,1373.105,1394.175,1431.54,1306.487z"/>
	<path style="fill:#010102;" d="M1310.25,713.158c10.648,4.95,19.965-10.853,9.251-15.825
		c-76.585-35.577-123.893-109.389-143.292-189.643c-20.066-83.03,20.592-186.311,98.853-224.996
		c6.587-3.259,5.486-10.6,1.174-14.434c-2.621-2.331-6.432-3.373-10.428-1.399c-7.356,3.636-14.286,7.948-20.994,12.566
		c-65.36,44.988-99.536,133.54-90.376,210.585C1165.402,582.215,1225.512,673.798,1310.25,713.158z"/>
	<path style="fill:#010102;" d="M1363.707,697.738c3.395-2.439,5.043-6.7,1.735-11.055
		c-44.299-58.333-72.187-128.385-52.293-201.668c21.842-80.474,101.732-127.398,175.286-152.573
		c5.936-2.027,7.311-8.004,5.627-12.563c-1.468-3.988-5.263-6.901-10.498-5.112c-80.399,27.516-155.276,75.004-185.709,157.897
		c-28.446,77.491,4.611,161.192,51.76,223.273C1353.411,700.931,1359.75,700.577,1363.707,697.738z"/>
	<path style="fill:#010102;" d="M378.095,411.069c5.051-2.662,7.885-9.393,2.407-14.2
		c-73.109-64.161-162.546-101.879-259.763-108.162c-6.695-0.433-9.56,5.271-8.659,10.428c0.688,3.948,3.573,7.577,8.659,7.905
		c92.157,5.957,177.525,41.99,246.8,102.79C370.942,412.812,374.945,412.729,378.095,411.069z"/>
</g>
</svg>
