<?xml version="1.0" encoding="utf-8"?>
<!-- Generator: Adobe Illustrator 27.5.0, SVG Export Plug-In . SVG Version: 6.00 Build 0)  -->
<svg version="1.1" id="Layer_1" xmlns="http://www.w3.org/2000/svg" xmlns:xlink="http://www.w3.org/1999/xlink" x="0px" y="0px"
	 viewBox="0 0 299.171 224.481" style="enable-background:new 0 0 299.171 224.481;" xml:space="preserve">
<g>
	<g>
		<path style="fill:#5E2C00;" d="M282.25,166.737c0.149-0.263,0.254-0.536,0.354-0.813c0.277,1.109,0.785,2.151,1.457,3.162
			c2.598,2.579,7.029,4.481,10.603,3.934c0.135-0.702-0.5-1.496-0.843-2.022c-1.44-2.219-1.789-4.752-2.215-7.28
			c0.091,0.149,0.178,0.296,0.284,0.439c0.262,0.354,0.669-0.302,0.697-0.516c0.269-1.846-0.08-4.1-0.801-6.077
			c0.072,0.063,0.132,0.139,0.207,0.203c0.295,0.272,0.582-0.289,0.587-0.529c0.064-3.527-1.26-7.627-4.694-9.143
			c-0.165-0.074-0.332-0.089-0.501-0.129c-2.076-12.614-4.672-25.149-8.565-37.297c-2.652-8.272-6.387-16.304-9.948-24.213
			c-1.616-3.577-3.401-6.803-5.674-10.01c-2.239-3.163-5.291-5.054-8.254-7.397c-0.002-0.021-0.005-0.043-0.007-0.063
			c0.002-0.132-0.083-0.123-0.165-0.07l-0.043-0.036c-0.082-0.062-0.209,0.153-0.146,0.218l0.047,0.045
			c-0.788,3.17,1.057,7.897,2.09,10.815c1.585,4.511,3.156,11.023,7.413,13.778c0.019,0.01,0.034-0.002,0.053,0.002
			c3.582,6.136,6.924,12.212,9.24,19.033c2.404,7.086,3.861,14.396,5.538,21.672c1.18,5.109,2.266,10.236,3.414,15.352
			c-2.652,2.319-3.64,7.154-3.397,10.308c0.032,0.411,0.375,0.386,0.638,0.188c0.195-0.147,0.364-0.326,0.514-0.52
			c-0.083,0.447-0.148,0.9-0.208,1.362c-0.182,1.402,0.11,5.611,1.783,6.006C281.934,167.195,282.16,166.893,282.25,166.737z"/>
		<path style="fill:#E4E5E6;" d="M273.676,108.831c-2.262-6.121-5.772-11.38-9.713-16.48c-2.235-3.989-4.107-7.921-5.782-12.221
			c-1.207-3.102-3.043-7.196-3.209-10.64c2.578,2.639,5.165,5.011,7.449,7.959c2.59,3.348,4.213,7.438,5.824,11.311
			c3.367,8.091,7.089,16.07,9.763,24.426c3.654,11.424,5.619,23.149,7.691,34.867c-0.457,0.148-0.903,0.36-1.328,0.65
			c-0.255,0.072-0.507,0.142-0.742,0.256c-1.52-6.688-2.935-13.406-4.326-20.118C277.897,122.046,276.083,115.335,273.676,108.831z"
			/>
		<path style="fill:#B07958;" d="M279.983,156.546c0.148-1.602,0.737-3.031,1.629-4.233c0.6-1.116,1.421-2.113,2.456-2.669
			c1.949-1.041,3.804-0.547,5.047,0.892c0.65,0.611,1.239,1.394,1.726,2.363c0.477,0.961,0.523,3.105,1.32,3.836
			c-0.54-0.499-1.027-1.068-1.518-1.62c-0.03,0.598-0.057,1.195-0.064,1.794c0.766,1.628,1.283,3.614,1.326,5.434
			c-0.305-0.555-0.581-1.127-0.907-1.671c-0.032,1.578-0.214,3.15,0.04,4.724c0.237,1.503,0.495,2.992,0.989,4.451
			c0.53,0.822,1.131,1.636,1.83,2.466c0.021,0.021,0.028,0.05,0.045,0.07c-3.223-0.116-5.979-1.435-8.27-3.693
			c-2.13-2.084-2.141-5.022-3.369-7.489c-0.045-0.085-0.123,0.044-0.125,0.093c-0.036,0.929,0.064,1.857,0.25,2.766
			c-0.004,0.021-0.008,0.042-0.004,0.061c-0.042-0.052-0.068-0.114-0.106-0.167c-0.464,1.686-0.809,1.751-1.031,0.201
			c-0.566-1.71-0.593-3.427-0.218-5.098c-0.043-0.684-0.049-1.372-0.043-2.057c-0.258,0.32-0.506,0.644-0.73,0.988
			C278.825,160.257,279.882,157.638,279.983,156.546z"/>
	</g>
	<path style="fill:#532062;" d="M116.413,115.563c-0.024-0.025-0.083,0.044-0.057,0.071c0.055,0.053,0.108,0.108,0.163,0.161
		c0.025,0.026,0.083-0.044,0.057-0.07C116.521,115.67,116.467,115.617,116.413,115.563z"/>
	<path style="fill:#5E2C00;" d="M273.071,158.721c-0.119-0.387-0.388-1.014-0.553-1.649c-0.885-1.189-1.434-2.455-1.438-4.33
		c-0.019-8.771,1.146-17.466,0.701-26.295c-0.489-9.716,0.602-19.413,0.123-29.134c-0.31-6.273-1.317-13.093-4.431-18.665
		c0.167-0.232,0.267-0.509,0.172-0.683c-6.269-11.598-15.496-21.243-27.692-26.612c-5.405-2.379-10.276-3.56-16.134-2.171
		c-3.037,0.721-6.038,1.641-9.007,2.599c-3.919,1.266-7.876,1.584-11.905,2.236c-14.7,2.383-28.221,1.913-42.38-2.844
		c-6.235-2.096-12.292-3.763-18.923-3.259c-4.052,0.308-7.828,1.933-11.975,1.29c-2.192-0.339-4.346-1.367-6.46-2.228
		c4.818-0.46,9.556-2.389,13.929-4.272c3.581-1.544,8.747-3.184,11.132-6.483c4.075-5.638-16.312-10.562-18.923-11.128
		c-8.785-1.906-18.239-2.082-26.921,0.363c-0.818-1.142-1.741-2.187-2.832-3.073c2.266,0.229,4.693,0.547,6.68-0.167
		c0.334-0.121,0.669-0.497,0.697-0.861c0.178-2.302-3.814-4.293-5.436-5.083c-3.565-1.734-7.004-2.8-10.708-2.956
		c0.682-0.085,1.374-0.14,2.099-0.134c0.453,0.005,1.33-1.023,0.79-1.384c-3.539-2.364-7.328-1.561-11.174-1.134
		c1.616-0.878,3.289-1.678,4.575-2.946c0.214-0.21,0.582-0.689,0.37-1.017c-1.451-2.247-7.41-0.254-9.448,0.059
		c-1.819,0.279-3.49,0.794-5.06,1.512c0.019-0.394,0.047-0.789,0.098-1.188c0.144-1.109,0.677-2.1,1.08-3.124
		c0.097-0.246,0.032-0.632-0.309-0.592c-1.702,0.203-3.816,1.499-4.973,2.745c-0.749,0.809-1.372,1.555-1.866,2.358
		c-4.043-1.479-8.662-1.43-12.69,0.045c-0.195,0.072-0.763,0.796-0.303,0.854c1.525,0.197,3.558,0.5,5.119,1.274
		c-4.628,0.373-8.451,2.067-12.464,4.731c-0.208,0.138-1.014,1.237-0.32,1.29c0.915,0.07,1.84,0.029,2.766-0.031
		c-2.058,1.017-4.02,2.333-5.333,3.973c-3.16-0.546-6.292-1.089-9.539-1.07c-4.532,0.027-9.046,1.354-13.26,2.898
		c-4.403,1.613-8.637,3.892-12.508,6.522c-2.023,1.375-3.526,2.605-3.925,5.051c-0.739,4.517,15.34,5.482,17.809,5.66
		c7.593,0.546,14.836-1.693,21.06-5.818c-1.353,8.467-4.157,16.53-8.696,23.957c-2.611,4.272-6.724,7.517-9.28,11.727
		c-1.773,2.918-1.801,6.287-1.26,9.581c-1.55,2.653-1.322,5.021-0.43,7.79c-0.066,0.074-0.119,0.168-0.111,0.229
		c0.365,3.279,1.282,6.619,4.454,8.095c1.609,0.748,3.73,0.326,5.468-0.073c-0.045,0.107-0.059,0.213-0.013,0.289
		c2.217,3.628,6.017,3.751,9.903,3.201c4.933,3.677,12.939,2.626,18.176-0.075c2.876-1.483,5.686-3.086,7.73-5.628
		c2.512-3.126,3.465-7.639,5.475-11.111c0.072-0.125,0.142-0.254,0.212-0.381c6,2.616,10.465,7.432,14.141,12.975
		c0.851,4.563,1.006,9.417,1.648,13.982c0.839,5.966,0.931,11.949,1.22,17.955c0.61,12.635,3.296,24.655,5.774,36.997
		c0.044,0.223,0.157,0.316,0.298,0.325c1.231,13.183,2.728,26.33,3.831,39.526c-0.151,1.336-0.307,2.671-0.534,3.999
		c-0.231,1.349-1.11,2.929-0.887,4.333c0.019,0.123,0.082,0.214,0.203,0.252c0.318,0.098,0.623,0.095,0.921,0.036
		c-0.045,0.07-0.089,0.143-0.135,0.21c-0.005,0.01-0.011,0.021-0.018,0.03c-1.529,1.608-3.257,4.945-2.615,6.852
		c0.794,2.36,7.98,1.192,9.677,1.021c2.808-0.282,6.055-1.156,8.006-3.276c1.87-2.031,0.462-5.788,0.245-8.101
		c-0.006-0.057-0.029-0.084-0.044-0.124c0.68-1.11,1.196-2.008,0.966-3.54c-0.416-2.791-2.275-5.763-3.225-8.427
		c-2.724-7.644-3.912-15.721-3.262-23.818c1.063-2.194,2.717-5.214,2.302-7.468c-0.705-3.827-2.504-7.379-2.94-11.233
		c-1.013-8.959-0.013-18.072-1.023-27.01c4.257,3.983,9.281,7.068,15.027,8.578c0.074,0.019,0.152-0.003,0.228-0.045
		c0.013,0.04,0.026,0.08,0.038,0.121c1.936,6.414,3.755,12.553,5.144,19.124c1.419,6.707,1.819,13.258,2.256,20.063
		c0.007,0.121,0.07,0.154,0.149,0.145c0.201,5.343,0.381,10.689,0.597,16.038c0.191,4.744,0.093,9.579,0.282,14.358
		c-0.353,1.599-0.845,3.139-1.433,4.697c-0.307,0.818-1.18,1.38-0.849,2.254c0.189,0.502,0.686,0.627,1.3,0.56
		c-1.214,2.132-2.794,4.788-2.077,7.187c0.559,1.866,6.934,0.781,8.128,0.661c2.396-0.239,6.682-0.953,8.379-2.853
		c1.796-2.01,0.995-4.603,0.157-6.894c-0.021-0.057-0.055-0.085-0.087-0.118c0.169-0.213,0.305-0.426,0.393-0.609
		c0.295-0.622,0.434-1.191,0.348-1.88c-0.085-0.704-0.394-1.313-0.589-1.979c-0.663-5.337-2.2-10.427-3.014-15.737
		c-0.768-4.996-1.595-11.26-0.826-16.42c0.781-1.534,1.256-2.898,1.572-4.596c0.54-2.883-1.583-5.329-1.466-8.179
		c0.243-5.903-0.199-11.83-0.526-17.726c-0.103-1.846-0.171-3.684-0.174-5.52c2.472,0.677,5.284,0.445,7.796,0.274
		c4.411-0.301,8.789,0.194,13.201-0.099c7.945-0.525,15.512-0.272,23.361-2.081c1.624-0.374,3.063-0.895,4.392-1.517
		c0.017,0.079,0.066,0.143,0.178,0.167c2.593,0.559,4.888,0.904,7.345,1.77c-0.046-0.006-0.091-0.012-0.136-0.017
		c0.576,0.967,1.208,1.894,1.929,2.759c4.621,5.542,10.795,8.887,16.75,12.576c0.309,0.333,0.623,0.663,0.954,0.989
		c2.348,2.304,2.658,4.898,3.317,8.034c1.124,5.335,1.285,11.085,1.711,16.515c0.513,6.552,1.033,13.421,0.891,19.987
		c-0.034,1.626-0.311,3.636-0.413,5.645c-0.25,1.072-0.523,2.139-0.824,3.196c-0.485,1.703-1.692,3.019-2.249,4.598
		c-0.313,0.887,0.201,1.195,0.979,1.224c-1.072,1.942-3.228,5.261-2.66,7.21c0.705,2.415,5.878,1.199,7.643,0.98
		c2.559-0.32,6.106-1.012,7.764-3.145c1.19-1.531,1.051-3.865,0.614-5.911c-1.927-6.207-0.809-12.543-0.011-18.962
		c0.197-4.808,0.426-9.658,1.085-14.415c0.372-2.671,0.995-5.378,1.754-8.047c-0.04-0.085-0.063-0.182-0.041-0.295
		c0.222-1.18,0.756-2.456,1.301-3.763c0.335-1.003,0.68-1.999,1.035-2.975c0.015-0.045,0.026-0.083,0.042-0.128
		c-0.017,0.142-0.028,0.286-0.046,0.429c0.481-1.484,0.729-2.952,0.311-4.308c-0.119-0.387-0.388-1.014-0.553-1.648
		c-0.885-1.189-1.434-2.455-1.438-4.33c-0.005-2.776,0.114-5.542,0.256-8.311c3.509,2.721,7.379,4.933,11.165,7.278
		c0.309,0.333,0.623,0.663,0.955,0.989c2.348,2.304,2.658,4.898,3.317,8.034c1.124,5.335,1.285,11.084,1.711,16.514
		c0.513,6.552,1.033,13.421,0.891,19.988c-0.034,1.626-0.311,3.635-0.413,5.645c-0.25,1.072-0.523,2.139-0.824,3.196
		c-0.485,1.704-1.692,3.019-2.249,4.598c-0.313,0.888,0.201,1.196,0.979,1.224c-1.072,1.942-3.228,5.261-2.66,7.21
		c0.705,2.415,5.878,1.199,7.643,0.98c2.56-0.32,6.106-1.012,7.764-3.145c1.19-1.531,1.051-3.865,0.614-5.911
		c-1.927-6.207-0.809-12.543-0.011-18.962c0.197-4.809,0.426-9.659,1.086-14.415c0.371-2.671,0.995-5.378,1.754-8.047
		c-0.04-0.085-0.063-0.182-0.042-0.294c0.222-1.18,0.756-2.456,1.301-3.764c0.335-1.003,0.68-1.999,1.035-2.974
		c0.015-0.045,0.026-0.083,0.042-0.128c-0.017,0.142-0.028,0.286-0.045,0.429C273.242,161.545,273.49,160.078,273.071,158.721z"/>
	<path style="fill:#F9F7E5;" d="M192.702,134.018c4.515-2.523,7.771-6.261,12.528-9.52c3.677-2.519,8.598-4.645,13.063-5.091
		c1.929-0.193,4.194,0.346,6.456,1.104c1.775,4.101,2.976,8.605,4.782,12.682c-4.865-0.852-10.196,0.323-14.652,2.183
		c-4.549,1.899-8.203,2.114-12.864,0.576C198.554,134.811,196.14,134.405,192.702,134.018z"/>
	<path style="fill:#F9F7E5;" d="M238.629,159.164c0.381,1.196,0.515,2.412-0.021,3.85c-0.67,1.802-1.377,3.54-1.912,5.392
		c-1.326,4.583-2.514,9.037-3.046,13.793c-0.589,5.257-0.691,10.677-0.83,15.962c-0.023,0.871-0.1,1.792-0.182,2.734
		c-0.1,2.033-0.212,4.066-0.03,6.085c0.142,0.851,0.379,1.672,0.76,2.434c-0.146,0.203-0.239,0.419-0.199,0.586
		c0.441,1.839,1.786,6.281-0.872,7.338c-1.874,0.746-3.903,1.201-5.898,1.441c-0.775,0.093-6.191,1.042-5.958-0.776
		c0.256-1.999,1.457-3.933,2.137-5.858c0.533-0.077,1.091-0.214,1.563-0.355c-0.119,0.235-0.214,0.48-0.252,0.815
		c-0.019,0.182,0.029,0.388,0.229,0.441c1.65,0.438,3.385-1.021,4.702-2.262c-0.045,0.441-0.047,0.87,0.146,1.341
		c0.057,0.134,0.207,0.174,0.336,0.168c1.409-0.058,2.552-1.102,3.194-2.278c0.03-0.056,0.049-0.109,0.063-0.16
		c-0.222,0.045-0.462-0.042-0.532-0.324c-0.023,0.016-0.045,0.027-0.068,0.048c-0.483,0.844-1.14,1.154-1.968,0.929
		c0.129-0.421,0.182-0.853,0.159-1.292c0.017-0.547-0.497-0.543-0.832-0.231c-0.593,0.55-4.613,3.924-3.585,1.946
		c0.163-0.313,0.157-0.994-0.391-0.749c-0.509,0.226-3.857,1.128-3.213,0.342c0.39-0.475,0.67-1.037,0.919-1.61
		c0.013-0.042,0.022-0.085,0.051-0.13c0.008-0.011,0.015-0.024,0.023-0.037c0.114-0.273,0.224-0.546,0.332-0.814
		c0.157-0.394,0.301-0.801,0.436-1.214c0.021,0.158,0.055,0.311,0.083,0.466c1.477-3.208,1.552-6.737,1.946-10.232
		c0.015-1.295,0.021-2.594-0.008-3.898c-0.146-6.644-0.593-13.45-1.203-20.07c-0.538-5.847-1.031-11.592-2.505-17.288
		c-0.055-0.21-0.119-0.409-0.189-0.605c0.174,0.124,0.341,0.257,0.514,0.383c-0.485-1.223-0.94-2.466-1.48-3.666
		c-1.525-0.974-3.107-1.876-4.653-2.809c-4.939-2.977-9.452-6.053-13.489-10.216c-0.269-0.276-0.523-0.564-0.769-0.858
		c2.09,0.686,4.189,1.128,6.472,1.085c3.573-0.068,6.923-2.506,10.354-3.253c3.503-0.762,7.22-1.224,10.768-0.36
		c0.241,0.059,0.503-0.051,0.743-0.235c0.764,1.468,1.639,2.858,2.692,4.122c1.29,1.547,2.709,2.911,4.204,4.17
		c-0.228,3.467-0.451,6.932-0.455,10.404c-0.002,1.748,0.012,2.729,0.798,4.212C237.956,158.53,238.286,158.865,238.629,159.164z"/>
	<path style="fill:#606264;" d="M222.485,136.208c0.288,4.558,1.576,7.853,4.744,11.193c1.383,1.458,2.876,2.835,4.175,4.37
		c1.417,1.674,3.302,2.539,5.057,3.782c0.191,0.136,0.366,0.299,0.549,0.449c-0.093-0.631-0.097-1.296-0.097-2.142
		c0.004-3.472,0.228-6.937,0.455-10.404c-1.495-1.26-2.914-2.624-4.204-4.17c-1.053-1.264-1.929-2.653-2.692-4.122
		c-0.24,0.184-0.502,0.293-0.743,0.235c-2.398-0.583-4.872-0.555-7.307-0.245C222.444,135.505,222.463,135.857,222.485,136.208z"/>
	<path style="fill:#F9F7E5;" d="M271.194,162.862c-0.67,1.802-1.378,3.541-1.912,5.392c-1.326,4.583-2.514,9.037-3.046,13.793
		c-0.589,5.256-0.691,10.677-0.83,15.962c-0.023,0.871-0.101,1.792-0.182,2.734c-0.1,2.033-0.212,4.065-0.03,6.084
		c0.142,0.852,0.379,1.672,0.76,2.434c-0.146,0.203-0.239,0.42-0.199,0.586c0.441,1.84,1.786,6.281-0.872,7.338
		c-1.874,0.746-3.903,1.201-5.898,1.442c-0.775,0.093-6.191,1.042-5.958-0.777c0.256-1.999,1.456-3.933,2.137-5.858
		c0.533-0.077,1.091-0.214,1.563-0.354c-0.119,0.235-0.214,0.479-0.252,0.814c-0.018,0.182,0.029,0.389,0.229,0.441
		c1.65,0.438,3.385-1.021,4.702-2.262c-0.045,0.442-0.047,0.87,0.146,1.342c0.057,0.134,0.207,0.174,0.335,0.169
		c1.409-0.058,2.552-1.102,3.194-2.278c0.03-0.056,0.049-0.109,0.063-0.16c-0.222,0.045-0.462-0.042-0.532-0.324
		c-0.023,0.016-0.045,0.026-0.068,0.048c-0.483,0.844-1.14,1.154-1.968,0.929c0.129-0.421,0.182-0.852,0.159-1.292
		c0.017-0.548-0.497-0.543-0.831-0.231c-0.593,0.55-4.613,3.925-3.585,1.947c0.163-0.313,0.157-0.994-0.391-0.749
		c-0.509,0.225-3.857,1.128-3.213,0.342c0.39-0.475,0.67-1.037,0.919-1.61c0.013-0.043,0.023-0.086,0.051-0.13
		c0.008-0.011,0.015-0.024,0.023-0.037c0.114-0.272,0.224-0.545,0.332-0.813c0.157-0.394,0.301-0.801,0.435-1.214
		c0.021,0.158,0.055,0.311,0.083,0.466c1.478-3.208,1.552-6.737,1.946-10.232c0.015-1.295,0.021-2.593-0.008-3.898
		c-0.146-6.644-0.593-13.45-1.203-20.069c-0.538-5.847-1.031-11.592-2.505-17.288c-0.055-0.209-0.119-0.41-0.189-0.605
		c0.174,0.124,0.341,0.257,0.514,0.383c-0.485-1.223-0.94-2.466-1.48-3.666c-1.525-0.974-3.107-1.876-4.653-2.809
		c-4.939-2.978-9.452-6.053-13.489-10.216c-3.262-3.364-5.005-7.861-6.727-12.374c-1.563-2.785-2.454-5.871-4.068-8.616
		c-0.805-1.369-1.947-2.217-3.219-2.892c0.841,1.106,1.569,2.292,2.215,3.537c-3.632-0.782-7.294-0.808-11.059,0.809
		c-3.146,1.352-6.007,2.535-8.881,4.469c-3.408,2.292-6.034,5.547-9.384,7.933c-3.751,2.671-9.021,2.996-13.409,3.835
		c-4.396,0.839-8.95,0.645-13.4,0.645c-3.865,0-7.641,0.395-11.52,0.198c-4.255-0.217-8.624,1.242-12.86,0.381
		c-0.204-0.041-0.436,0.068-0.645,0.239c0.023-1.286,0.07-2.573,0.182-3.863c0.278-3.216,1.771-6.006,2.406-9.125
		c1.319-6.476,0.864-11.765-0.746-18.124c-0.116-0.457-0.751,0.102-0.693,0.424c1.191,6.701,1.222,13.141-0.58,19.739
		c-1.243,4.545-2.508,8.349-2.338,13.22c0.216,6.203,0.65,12.396,0.91,18.597c0.095,2.258-0.104,4.633,0.394,6.841
		c0.856,3.797,1.58,6.002-0.087,9.666c-0.161,0.353-0.059,0.523,0.135,0.569c-0.991,4.341-0.53,8.771-0.195,13.264
		c0.26,3.451,0.891,6.863,1.828,10.188c0.79,2.802,1.084,5.765,2.04,8.505c0.006,0.347,0.038,0.689,0.142,1.029
		c0.178,0.583,0.73,1.773,0.123,2.292c-0.375,0.318-0.399,0.372-0.837,0.551c-0.36,0.147-0.606,0.351-0.703,0.741
		c-0.057,0.225-0.11,0.593,0.205,0.663c0.307,0.07,0.633-0.019,0.945-0.182c0.002,0.019-0.005,0.042-0.002,0.061
		c0.313,1.384,1.569,4.355-0.024,5.356c-1.781,1.116-4.732,1.559-6.745,1.937c-1.602,0.3-3.335,0.15-4.962,0.277
		c-4.484,0.348-1.686-4.734-0.64-6.81c0.581-0.197,1.19-0.478,1.726-0.759c-0.174,0.509-0.144,0.957,0.405,1.101
		c1.419,0.371,2.976-0.605,4.282-1.347c-0.11,0.462-0.11,0.916,0.311,1.09c1.08,0.447,2.391-0.643,3.177-1.292
		c0.445-0.366,0.436-1.475-0.279-0.959c-0.549,0.398-2.076,1.313-1.693-0.001c0.098-0.335-0.042-0.823-0.495-0.612
		c-0.9,0.419-1.709,0.958-2.637,1.333c-1.059,0.427-2.166,0.915-1.182-0.514c0.303-0.438,0.297-1.457-0.468-0.922
		c-0.631,0.439-3.532,2.43-4.376,1.643c0.176-0.292,0.333-0.601,0.481-0.915c0.006-0.043,0.006-0.085,0.025-0.132
		c0.207-0.501,0.403-1.003,0.604-1.505c0.089-0.288,0.169-0.58,0.241-0.874c0.006,0.075,0.013,0.15,0.019,0.225
		c0.487-1.234,0.943-2.478,1.364-3.733c0.063-4.315-0.311-8.667-0.449-12.942c-0.214-6.553-0.502-13.12-1.398-19.624
		c0.284-9.758-0.927-20.474-3.752-29.667c-2.728-8.872-7.787-18.598-8.804-28.225c-0.389-1.587-0.72-3.191-1.01-4.804
		c-1.042,8.716,2.531,17.036,5.142,25.385c-5.88-2.789-11.073-5.851-15.62-10.599c-4.752-4.965-7.567-11.029-10.706-17.031
		c-5.22-9.977-10.919-23.002-22.56-26.664c0.826-1.605,1.643-3.24,2.976-4.482c2.023-1.885,4.549-2.905,7.031-4.016
		c3.313-1.482,6.619-3.22,9.753-5.057c2.779-1.628,4.964-3.282,6.153-5.587c0.008-1.424-0.085-2.839-0.345-4.245
		c-0.981,11.729-18.741,11.579-24.849,19.771c-2.844,3.812-4.786,8.742-6.665,13.091c-3.497,8.088-16.842,12.104-24.86,8.679
		c1.379-0.239,2.745-0.518,4.033-0.714c2.904-0.441,6.699,0.75,9.395-0.661c1.527-0.8,2.8-1.743,3.884-2.933
		c0.157-0.704,0.309-1.41,0.462-2.115c-1.919,2.286-3.677,3.911-7.027,4.028c-2.584,0.091-5.176,0.025-7.729,0.44
		c-4.538,0.739-10.147,2.285-13.525-1.495c0.006-0.002,0.01-0.003,0.015-0.004c4.015-0.913,7.264-1.937,11.411-1.301
		c3.258,0.5,7.358,2.088,10.348-0.228c2.999-2.323,3.765-5.512,3.23-9.196C57.733,73.249,41.742,72.849,33.665,74.18
		c-2.754,0.454-6.599,1.421-8.624,3.677c0.053-1.633,0.085-3.267,0.229-4.894c0.273-3.094,4.183-6.443,6.155-8.76
		c2.87-3.372,5.519-7.318,7.417-11.31c2.749-5.782,4.748-11.829,5.519-18.087c-0.072-2.181-0.013-4.368-0.307-6.531
		c-0.108,1.254-0.241,2.503-0.405,3.743c-5.028,2.499-9.59,4.868-15.505,5.491c-6.464,0.682-15.261,0.076-21.173-2.902
		c-3.707-1.869,6.943-7.628,7.69-8.012c3.494-1.798,7.122-3.217,10.89-4.312c6.157-1.792,11.966-0.618,18.023-0.513
		c1.023,1.099,3.584,0.783,5.947,0.211c-0.295,0.247-0.574,0.509-0.805,0.807c-0.163,0.21-0.536,1.008-0.008,1.083
		c2.164,0.313,4.43,0.146,6.654-0.205c1.309-0.582,2.542-1.347,3.732-2.179c-2.664,0.593-5.642,1.155-8.391,0.995
		c1.016-0.658,2.313-1.233,3.113-1.762c0.441-0.292,1.019-1.614,0.019-1.34c-2.331,0.64-4.621,1.148-7.018,1.396
		c-4.098,0.424,5.134-4.083,5.979-4.367c0.455-0.152,1.226-1.4,0.347-1.4c-1.398,0.003-2.823,0.182-4.232,0.252
		c3.686-2.084,7.335-3.141,11.786-3.587c0.299-0.03,1.057-0.804,0.599-1.051c-0.593-0.32-1.22-0.54-1.845-0.804
		c-1.004-0.38-2.017-0.74-3.037-1.081c-1.523-0.125-1.294-0.198,0.69-0.218c3.105-0.601,6.443-0.382,9.476,0.656
		c-0.345,0.699-0.599,1.458-0.752,2.354c-0.061,0.353,0.398,0.071,0.46-0.106c0.964-2.724,3.482-5.863,6.508-6.659
		c-0.766,2.185-1.476,4.543-0.802,6.841c0.163,0.554,0.957-0.379,0.947-0.704c-0.015-0.529-0.026-1.051-0.026-1.573
		c2.848-1.053,5.871-1.419,9.141-1.868c1.758-0.242,5.042-0.739,1.916,0.989c-1.483,0.819-2.94,1.637-4.295,2.652
		c-0.33,0.247-0.766,1.286-0.015,1.26c3.831-0.14,7.504-1.399,11.123-0.125c-1.421,0.342-2.808,0.773-4.24,1.3
		c-0.309,0.112-0.889,1.072-0.252,1.013c5.773-0.528,10.88,0.976,15.848,3.836c1.277,0.737,5.113,2.628,1.771,2.822
		c-2.094,0.122-4.225-0.141-6.326-0.096c-0.32,0.006-1.046,0.819-0.603,1.056c1.712,0.914,3.06,2.175,4.185,3.663
		c-1.597,0.5-3.17,1.08-4.699,1.77c-0.019,0.007-0.038,0.026-0.059,0.04c2.298-0.115,4.429-0.943,6.729-1.362
		c0.593-0.108,1.182-0.191,1.771-0.259c6.04-1.052,12.205-0.98,18.436-0.299c4.024,0.439,7.962,1.413,11.812,2.638
		c1.966,0.626,16.246,5.492,9.439,9.408c-7.935,4.563-17.697,8.305-26.944,7.386c-6.347-0.631-11.979-4.119-17.621-7.108
		c1.629,1.862,3.395,3.605,5.313,5.153c4.835,2.31,9.992,3.858,15.289,3.893c-0.008,0.118,0.019,0.228,0.108,0.307
		c0.083,0.076,0.169,0.152,0.254,0.228c0.097,0.088,0.216,0.094,0.335,0.052c1.989,0.926,3.907,1.936,5.951,2.751
		c2.788,1.113,5.323,0.642,8.224,0.292c4.35-0.526,7.955-1.339,12.401-0.801c3.433,0.416,6.722,1.472,9.99,2.55
		c12.631,4.167,24.135,5.798,37.41,4.339c5.882-0.647,11.871-1.403,17.636-2.745c7.167-1.67,13.533-5.19,21.035-2.725
		c7.188,2.362,13.59,6.818,19.233,11.737c4.729,4.119,8.219,9.175,12.04,14.055c8.381,15.598,4.242,34.99,5.086,51.931
		c0.413,8.256-0.828,16.434-0.837,24.647c-0.002,1.747,0.012,2.729,0.798,4.211c0.244,0.458,0.574,0.793,0.917,1.092
		C271.596,160.208,271.73,161.424,271.194,162.862z"/>
	<path style="fill:#606264;" d="M43.65,32.018c0.164-1.24,0.297-2.488,0.405-3.743c0.294,2.164,0.235,4.35,0.307,6.531
		c-0.222,1.792-0.553,3.563-0.964,5.319c0.119-0.099,0.225-0.21,0.347-0.307c1.68-1.339,3.681-2.711,5.871-2.975
		c2.406-0.29,4.642,0.273,7,0.66c3.351,0.551,8.374,0.191,9.565-3.797c0.824-2.758-0.273-5.991-2.331-7.985
		c-1.953-1.894-4.49-2.505-7.144-2.733c-0.441,0.243-0.887,0.476-1.345,0.679c-2.224,0.351-4.49,0.518-6.654,0.205
		c-0.528-0.076-0.155-0.874,0.008-1.083c0.11-0.141,0.231-0.273,0.358-0.401c-0.051-0.089-0.083-0.188-0.083-0.287
		c-2.206,0.489-4.469,0.687-5.417-0.331c-6.057-0.105-11.866-1.28-18.023,0.513c-3.768,1.095-7.396,2.514-10.89,4.312
		c-0.747,0.384-11.397,6.143-7.69,8.012c5.913,2.978,14.709,3.584,21.173,2.902C34.059,36.886,38.621,34.517,43.65,32.018z"/>
	<path style="fill:#606264;" d="M135.159,28.359c-3.85-1.225-7.789-2.199-11.812-2.638c-6.231-0.681-12.396-0.753-18.436,0.299
		c-0.589,0.068-1.178,0.151-1.771,0.259c-2.3,0.419-4.432,1.247-6.729,1.362c0.021-0.013,0.039-0.032,0.059-0.04
		c1.529-0.69,3.101-1.27,4.699-1.77c-0.351-0.464-0.733-0.897-1.131-1.313c-4.257,1.719-8.372,3.74-11.759,6.767
		c-3.062,2.736-5.399,6.305-5.686,10.502c-0.331,4.88,1.732,8.184,5.017,11.589c2.359,2.445,5.222,4.966,5.892,8.459
		c0.351,1.819-0.061,3.941-1.178,5.485c4.627-2.306,8.446-5.176,8.885-10.437c0.26,1.406,0.353,2.821,0.345,4.245
		c-1.19,2.305-3.374,3.959-6.153,5.587c-3.134,1.837-6.439,3.574-9.753,5.057c-2.482,1.11-5.007,2.13-7.031,4.016
		c-1.333,1.243-2.15,2.877-2.976,4.482c10.577,3.327,16.247,14.376,21.109,23.852c2.002-0.001,3.995-0.379,5.549-1.531
		c3.459-2.565,3.194-6.856,2.584-10.665c-0.638-3.989-1.957-9.539,2.444-11.851c3.635-1.909,8.938-3.091,12.932-1.68
		c1.485,0.526,2.681,1.433,3.926,2.202c4.636-0.091,10.06-1.317,13.053-5.144c2.489-3.181,3.109-7.33,3.321-11.255
		c0.254-4.713,0.087-9.518,0.545-14.213c-1.811,0.205-3.628,0.496-5.596,0.735c-2.901,0.351-5.436,0.821-8.224-0.292
		c-2.045-0.815-3.962-1.825-5.951-2.751c-0.119,0.042-0.238,0.036-0.335-0.052c-0.085-0.076-0.171-0.152-0.254-0.228
		c-0.089-0.08-0.116-0.189-0.108-0.307c-5.297-0.035-10.454-1.583-15.289-3.893c-1.918-1.548-3.683-3.291-5.313-5.153
		c5.642,2.99,11.274,6.478,17.621,7.108c9.248,0.919,19.01-2.823,26.944-7.386C151.405,33.852,137.126,28.985,135.159,28.359z"/>
	<path style="fill:#606264;" d="M163.018,83.77c7.021,5.727,17.436,4.828,23.274,12.358c2.467,3.181,4.071,7.478,7.489,9.819
		c3.497,2.397,6.82,1.812,10.53,0.33c4.651-1.858,9.365-4.375,13.233-7.586c4.746-3.943,6.063-8.993,5.578-14.956
		c-0.42-5.19-0.563-10.142,1.539-15.026c1.51-3.509,3.815-6.58,6.886-8.873c3.082-2.301,6.557-3.849,10.181-5.044
		c-2.474-1.388-5.058-2.567-7.751-3.452c-7.502-2.465-13.868,1.055-21.035,2.725c-5.765,1.342-11.754,2.098-17.636,2.745
		c-13.275,1.458-24.779-0.172-37.41-4.339c-1.563-0.516-3.129-1.023-4.715-1.462C158.007,60.975,153.235,75.791,163.018,83.77z"/>
	<path style="fill:#606264;" d="M252.048,99.869c-4.053,3.767-6.968,8.793-6.407,14.524c0.511,5.239,3.495,9.78,7.055,13.508
		c5.17,5.413,11.525,9.405,17.348,14.016c0.275-4.275,0.51-8.555,0.293-12.855c-0.728-14.583,2.232-30.98-2.275-45.212
		c-0.991,1.765-2.089,3.449-3.378,4.961C261.02,93.111,256.157,96.05,252.048,99.869z"/>
	<path style="fill:#F9F7E5;" d="M248.257,76.434c-0.985-3.229-2.984-4.087-5.157-3.541c0.313,0.022,0.625,0.061,0.936,0.131
		C246.085,73.491,247.461,74.782,248.257,76.434z"/>
	<path style="fill:#606264;" d="M246.321,75.286c-1.671-1.573-3.831-1.631-5.894-1.106c-4.482,3.126-8.23,10.482-3.812,13.474
		c5.093,3.45,10.924-0.421,11.468-6.082C248.289,79.421,247.982,76.852,246.321,75.286z"/>
	<path style="fill:#5E2C00;" d="M37.015,26.801c-6.906-6.03-18.879,0.688-25.451,6.185c-0.21,0.175-0.207,0.706,0.133,0.458
		c3.798-2.79,7.587-5.192,12.17-6.464c2.743-0.762,5.619-1.127,8.41-0.495c1.752,0.398,3.041,1.446,4.144,2.709
		c-0.93,0.765-2.023,1.378-3.121,1.855c-0.987,0.429-1.862,0.522-2.61,1.35c-0.392,0.434-0.25,1.32,0.447,0.879
		c0.877-0.555,1.887-0.832,2.785-1.36c1.063-0.625,2.095-1.282,2.992-2.132c0.64,0.803,1.231,1.65,1.83,2.472
		C38.587,30.339,37.956,28.498,37.015,26.801z"/>
	<path style="fill:#5E2C00;" d="M135.58,34.46c-6.697-2.947-13.942-4.83-21.236-5.272c-4.619-0.28-10.338-0.316-12.559,4.521
		c-0.188,0.407,0.11,0.768,0.485,0.394c0.762-0.76,1.637-1.37,2.59-1.866c-0.028,0.137-0.006,0.27,0.115,0.373
		c1.199,1.019,2.994,1.365,4.483,1.808c1.275,0.38,3.134,0.845,4.469,0.655c0.449-0.064,1.059-1.15,0.389-1.101
		c-1.222,0.091-2.923-0.551-4.079-0.932c-1.311-0.433-2.65-1.132-4.009-1.415c8.327-3.124,21.632,1.262,28.871,3.687
		C135.466,35.435,136.006,34.648,135.58,34.46z"/>
	<path style="fill:#E4E5E6;" d="M61.865,52.426c5.341,0.466,10.74,0.553,15.923,1.86c-4.645-4.026-30.814-6.752-34.626-1.927
		C49.38,51.159,55.581,51.879,61.865,52.426z"/>
	<g>
		<g>
			<path style="fill:#5E2C00;" d="M73.676,49.676c-0.945,1.902-2.69,2.959-3.907,2.359c-1.21-0.6-1.424-2.634-0.481-4.54
				c0.947-1.903,2.694-2.956,3.906-2.356C74.407,45.74,74.621,47.771,73.676,49.676z"/>
		</g>
		<g>
			<path style="fill:#FFFFFF;" d="M72.143,47.241c-0.288,0.578-0.818,0.898-1.186,0.716c-0.369-0.18-0.436-0.8-0.146-1.377
				c0.288-0.582,0.817-0.903,1.186-0.718C72.367,46.045,72.431,46.661,72.143,47.241z"/>
		</g>
	</g>
	<g>
		<g>
			<path style="fill:#5E2C00;" d="M50.095,48.647c-0.946,1.906-2.692,2.959-3.903,2.356c-1.212-0.601-1.429-2.631-0.483-4.533
				c0.945-1.907,2.694-2.961,3.905-2.363C50.826,44.708,51.04,46.741,50.095,48.647z"/>
		</g>
		<g>
			<path style="fill:#FFFFFF;" d="M48.562,46.214c-0.288,0.576-0.819,0.895-1.188,0.713c-0.368-0.18-0.432-0.801-0.15-1.376
				c0.29-0.582,0.824-0.904,1.192-0.722C48.784,45.013,48.85,45.632,48.562,46.214z"/>
		</g>
	</g>
	<path style="fill:#FCCCAD;" d="M28.978,93.606c-2.336-0.472-3.363-3.037-4.289-5.187c0.051-0.073,0.082-0.15,0.068-0.209
		c-1.191-4.839-0.726-9.228,4.634-11.395c3.253-1.314,7.051-1.514,10.515-1.574c6.841-0.12,14.419,2.041,17.486,8.659
		c1.26,3.089,0.787,5.432-1.398,7.04c-0.101,0.174-0.19,0.356-0.305,0.523c-1.525,2.189-4.046,2.103-6.222,1.163
		c-0.934-0.192-1.87-0.44-2.779-0.61c-2.857-0.536-5.585-0.206-8.417,0.357C35.042,93.015,32.39,94.295,28.978,93.606z"/>
	<path style="fill:#F9F7E5;" d="M110.998,162.842c0.428,1.514,0.464,2.864,0.293,4.159c0.186,0.093,0.324,0.281,0.266,0.54
		c-0.51,2.276-0.949,4.569-1.52,6.831c0.013-0.007,0.026-0.012,0.04-0.02c-0.907,5.194-0.114,10.693,0.754,15.805
		c1.031,6.066,6.718,13.224,4.354,19.093c-0.191,0.477,0.057,0.595,0.362,0.528c0.309,2.791,1.167,6.54-2.389,7.703
		c-2.504,0.819-4.986,1.179-7.608,1.236c-1.512,0.032-3.124-0.022-4.615-0.184c-1.729-0.188-0.553-1.852-0.316-2.669
		c0.186-0.639,0.419-1.253,0.658-1.859c0.261-0.436,0.502-0.886,0.773-1.319c0.301-0.484,0.65-1.359,1.091-1.701
		c0.022-0.018,0.039-0.045,0.061-0.068c0.189-0.177,0.377-0.361,0.553-0.563c-0.034,0.172-0.053,0.333-0.059,0.482
		c0.274,0.072,0.409,0.401,0.311,0.659c0.043,0.015,0.074,0.045,0.131,0.047c1.854,0.047,4.003-0.523,5.697-1.515
		c-0.15,0.507-0.182,1.003,0.421,1.16c1.055,0.277,2.902-1.287,3.579-1.916c0.37-0.343,0.46-1.329-0.257-0.885
		c-0.529,0.329-2.247,0.925-2.503,1.433c0.243-0.479,0.339-0.804,0.373-1.33c0.036-0.587-0.533-0.551-0.873-0.242
		c-1.478,1.333-3.482,1.777-5.384,2.084c-0.269,0.044-0.28-0.294-0.197-0.721c-0.1-0.076-0.165-0.195-0.146-0.368
		c0.063-0.561,0.337-1.146,0.46-1.723c-0.051-0.007-0.108-0.008-0.167,0.003c-0.543,0.771-1.135,1.532-1.87,2.081
		c-0.33,0.245-0.686,0.453-1.084,0.591c-0.368,0.129-0.67-0.259-0.597-0.596c0.112-0.5,0.276-0.98,0.464-1.452
		c0.024-0.116,0.055-0.23,0.076-0.346c0.049-0.232,0.07-0.471,0.106-0.706c0.009,0.111,0.017,0.222,0.024,0.333
		c0.419-2.463,0.758-4.929,0.883-7.423c-0.375-12.335-2.258-24.548-4.378-36.705c0.097-0.109,0.18-0.231,0.239-0.353
		c-0.015-0.044-0.034-0.089-0.038-0.143c-0.028-0.479-0.038-0.958-0.039-1.435c-0.747-5.392-2.183-10.706-3.141-16.069
		c-1.179-6.583-1.885-13.173-2.27-19.849c-0.343-5.973-0.599-11.886-1.447-17.816c-0.512-3.578-0.864-7.433-1.58-11.106
		c3.246,5.306,5.89,11.083,8.51,16.166c2.533,4.916,5.83,9.62,9.829,13.541c0.111,8.441-1.156,17.011-0.209,25.433
		C109.081,155.8,109.88,158.88,110.998,162.842z"/>
	<path style="fill:#606264;" d="M93.513,125.451c0.385,6.676,1.091,13.266,2.27,19.849c0.67,3.747,1.568,7.471,2.307,11.213
		c4.185-6.844,5.877-14.091,5.718-22.149c-0.106-5.424-0.792-10.789-1.566-16.147c-1.19-1.789-2.275-3.639-3.246-5.522
		c-2.62-5.083-5.265-10.86-8.51-16.166c0.716,3.672,1.068,7.528,1.58,11.106C92.915,113.565,93.17,119.479,93.513,125.451z"/>
	<path style="fill:#5E2C00;" d="M34.402,85.207c-2.393-0.826-4.869-0.572-7.014-2.148c-0.258-0.189-0.752,0.358-0.572,0.599
		c1.044,1.409,2.461,1.97,3.962,2.429c0.013,0.147,0.087,0.262,0.256,0.299c1.667,0.376,0.095,3.783,2.215,3.505
		c1.419-0.188,3.179-0.255,3.738-1.841C37.498,86.6,35.437,85.563,34.402,85.207z"/>
	<path style="fill:#5E2C00;" d="M47.902,85.288c1.577-0.617,3.111-1.249,4.432-2.408c0.458-0.402,0.519-1.586-0.305-1.046
		c-2.567,1.683-7.948,1.314-8.777,5.058c-0.707,3.179,2.971,2.48,4.837,1.955c0.528-0.147,1.4-1.159,1.004-1.745
		c-0.282-0.419-0.582-0.644-1.044-0.861c-0.311-0.146-0.614-0.258-0.934-0.356c0.002-0.001,0.002-0.002,0.004-0.003
		C47.408,85.674,47.681,85.514,47.902,85.288z"/>
	<path style="fill:#8C8D85;" d="M232.349,210.26c-0.662,1.072-1.736,1.982-3.046,2.035c-0.129,0.006-0.279-0.034-0.336-0.168
		c-0.193-0.472-0.191-0.9-0.146-1.341c-1.317,1.241-3.052,2.7-4.702,2.262c-0.201-0.053-0.248-0.26-0.229-0.441
		c0.038-0.335,0.133-0.58,0.252-0.815c-0.472,0.14-1.03,0.278-1.563,0.355c-0.68,1.925-1.881,3.859-2.137,5.858
		c-0.233,1.818,5.183,0.87,5.958,0.776c1.995-0.24,4.024-0.696,5.898-1.441c2.453-0.976,1.497-4.829,0.987-6.865
		C232.974,210.396,232.663,210.323,232.349,210.26z"/>
	<path style="fill:#8C8D85;" d="M264.866,210.218c-0.665,1.024-1.713,1.872-2.978,1.925c-0.129,0.005-0.279-0.034-0.335-0.169
		c-0.193-0.472-0.191-0.9-0.146-1.342c-1.317,1.241-3.052,2.7-4.702,2.262c-0.201-0.053-0.248-0.259-0.229-0.441
		c0.038-0.335,0.133-0.58,0.252-0.814c-0.472,0.14-1.03,0.277-1.563,0.354c-0.68,1.925-1.881,3.859-2.137,5.858
		c-0.233,1.819,5.183,0.87,5.958,0.777c1.995-0.241,4.024-0.696,5.898-1.442c2.233-0.888,1.641-4.163,1.131-6.278
		C265.626,210.688,265.241,210.46,264.866,210.218z"/>
	<path style="fill:#8C8D85;" d="M145.664,211.792c-0.313,0.163-0.638,0.252-0.945,0.182c-0.314-0.07-0.261-0.438-0.205-0.663
		c0.002-0.013,0.009-0.021,0.013-0.034c-0.368-0.086-0.737-0.159-1.112-0.203c-0.051,0.128-0.124,0.25-0.224,0.331
		c-0.786,0.649-2.097,1.739-3.177,1.292c-0.42-0.174-0.42-0.628-0.311-1.09c-1.306,0.742-2.863,1.717-4.282,1.347
		c-0.549-0.144-0.58-0.592-0.405-1.101c-0.536,0.281-1.145,0.562-1.726,0.759c-1.046,2.076-3.844,7.158,0.64,6.81
		c1.627-0.127,3.359,0.023,4.962-0.277c2.012-0.378,4.964-0.821,6.745-1.937c1.593-1.001,0.337-3.972,0.024-5.356
		C145.659,211.834,145.666,211.811,145.664,211.792z"/>
	<path style="fill:#8C8D85;" d="M114.878,210.48c-0.398-0.187-1.029-0.457-1.468-0.835c-0.841,0.72-2.271,1.774-3.156,1.543
		c-0.603-0.157-0.57-0.653-0.421-1.16c-1.694,0.992-3.842,1.562-5.697,1.515c-0.057-0.002-0.087-0.032-0.131-0.047
		c0.099-0.258-0.036-0.587-0.311-0.659c0.005-0.149,0.024-0.31,0.059-0.482c-0.176,0.202-0.364,0.386-0.553,0.563
		c-0.021,0.023-0.038,0.05-0.061,0.068c-0.441,0.342-0.79,1.217-1.091,1.701c-0.271,0.433-0.512,0.882-0.773,1.319
		c-0.239,0.607-0.472,1.22-0.658,1.859c-0.237,0.817-1.413,2.482,0.316,2.669c1.491,0.161,3.104,0.216,4.615,0.184
		c2.622-0.057,5.104-0.417,7.608-1.236c3.126-1.023,2.842-4.046,2.516-6.659C115.399,210.714,115.132,210.597,114.878,210.48z"/>
	<path style="fill:#606264;" d="M156.312,101.576c-1.162-0.938-2.861-2.362-3.154-3.91c-0.455-2.383,1.11-5.161-0.69-7.152
		c-1.189-1.319-2.512-2.279-3.895-2.904c-0.54-0.109-1.085-0.172-1.633-0.137c-4.884,0.322-4.64,6.78-3.806,10.236
		c0.62,2.565,1.523,5.832,3.679,7.532c1.61,1.269,3.892,2.439,4.515,4.567c0.764,2.599,0.016,5.327,0.622,7.92
		c0.434,1.858,2.361,4.165,3.799,5.416c2.239,1.949,4.767,0.648,6.873-0.899c2.376-1.745,4.81-3.993,6.118-6.696
		C172.345,108.091,160.601,105.046,156.312,101.576z"/>
	<path style="fill:#606264;" d="M193.891,113.832c-0.426-2.861-4.316-3.553-6.405-2.281c-0.004,0.002-0.005,0.004-0.009,0.006
		c-0.464-0.032-0.962,0.047-1.518,0.309c-1.8,0.848-3.386,3.505-4.168,5.252c-0.839,1.869-1.813,4.085-1.053,6.125
		c0.801,2.148,4.611,0.893,5.969,0.33c2.596-1.074,5.716-3.645,6.394-6.58C193.708,115.993,194.052,114.921,193.891,113.832z"/>
	<path style="fill:#BBBDBE;" d="M115.448,58.824c-0.288,1.044-0.576,2.094-0.883,3.137C115.2,60.965,115.59,59.9,115.448,58.824z"/>
	<path style="fill:#BBBDBE;" d="M273.071,158.721c-0.119-0.387-0.388-1.014-0.553-1.649c-0.885-1.189-1.434-2.455-1.438-4.33
		c-0.019-8.771,1.146-17.466,0.701-26.295c-0.489-9.716,0.602-19.413,0.123-29.134c-0.31-6.273-1.317-13.093-4.431-18.665
		c0.167-0.232,0.267-0.509,0.172-0.683c-6.269-11.598-15.496-21.243-27.692-26.612c-5.405-2.379-10.276-3.56-16.134-2.171
		c-3.037,0.721-6.038,1.641-9.007,2.599c-3.919,1.266-7.876,1.584-11.905,2.236c-14.7,2.383-28.221,1.913-42.38-2.844
		c-6.235-2.096-12.292-3.763-18.923-3.259c-4.052,0.308-7.828,1.933-11.975,1.29c-2.192-0.339-4.346-1.367-6.46-2.228
		c4.818-0.46,9.556-2.389,13.929-4.272c3.192-1.376,7.641-2.833,10.257-5.47c-1.921-0.282-3.815-0.761-5.642-1.467
		c-4.642-1.793-8.683-4.87-13.404-6.476c-9.919-3.373-20.976-0.992-29.041,5.492c-0.288,0.229-0.879,0.127-0.828-0.343
		c0.396-3.692,2.753-6.993,5.722-9.442c-0.595,0.142-1.186,0.293-1.775,0.458c-0.818-1.142-1.741-2.187-2.832-3.073
		c2.266,0.229,4.693,0.547,6.68-0.167c0.334-0.121,0.669-0.497,0.697-0.861c0.178-2.302-3.814-4.293-5.436-5.083
		c-3.565-1.734-7.004-2.8-10.708-2.956c0.682-0.085,1.374-0.14,2.099-0.134c0.453,0.005,1.33-1.023,0.79-1.384
		c-3.539-2.364-7.328-1.561-11.174-1.134c1.616-0.878,3.289-1.678,4.575-2.946c0.214-0.21,0.582-0.689,0.37-1.017
		c-1.451-2.247-7.41-0.254-9.448,0.059c-1.819,0.279-3.49,0.794-5.06,1.512c0.019-0.394,0.047-0.789,0.098-1.188
		c0.144-1.109,0.677-2.1,1.08-3.124c0.097-0.246,0.032-0.632-0.309-0.592c-1.702,0.203-3.816,1.499-4.973,2.745
		c-0.749,0.809-1.372,1.555-1.866,2.358c-4.043-1.479-8.662-1.43-12.69,0.045c-0.195,0.072-0.763,0.796-0.303,0.854
		c1.525,0.197,3.558,0.5,5.119,1.274c-4.628,0.373-8.451,2.067-12.464,4.731c-0.208,0.138-1.014,1.237-0.32,1.29
		c0.915,0.07,1.84,0.029,2.766-0.031c-2.058,1.017-4.02,2.333-5.333,3.973c-1.683-0.291-3.359-0.573-5.047-0.778
		c1.125,0.894,2.131,1.919,2.931,3.208c0.176,0.285-0.047,0.777-0.419,0.73c-7.525-0.979-16.156-0.941-22.704,3.435
		c-3.685,2.463-7.642,6.106-9.942,10.343c4.748,1.554,12.148,2.006,13.758,2.122c7.593,0.546,14.836-1.693,21.06-5.818
		c-0.228,1.425-0.514,2.835-0.824,4.237c1.959-3.818,3.579-7.752,3.827-12.218c0.022-0.431,0.701-0.726,0.903-0.244
		c0.938,2.223,1.258,4.581,1.72,6.924c1.419-2.673,2.861-5.346,5.272-7.268c2.69-2.146,6.294-2.148,9.598-2.39
		c-2.287-1.929-5.528-2.043-8.442-2.195c-0.244-0.012-0.509-0.211-0.485-0.485c0.182-1.975,0.54-3.885-0.418-5.737
		c-0.191-0.372,0.121-0.827,0.547-0.712c3.621,0.975,6.203,3.226,8.844,5.716c0.642-2.246,1.124-4.448,2.972-6.077
		c0.212-0.188,0.625-0.205,0.762,0.099c0.926,2.059,0.843,4.249,0.587,6.433c2.482-2.638,5.856-4.083,9.372-5.039
		c0.404-0.11,0.775,0.345,0.548,0.712c-0.895,1.445-1.732,2.885-2.298,4.422c5.72-3.329,13.885-4.577,19.746-1.853
		c0.408,0.189,0.249,0.768-0.115,0.886c-3.625,1.184-11.083,2.467-12.701,6.59c4.63-0.435,10.897-2.519,14.692,0.844
		c0.269,0.239,0.13,0.732-0.214,0.811c-3.787,0.867-7.62,2.204-10.772,4.53c5.144,3.571,7.752,9.263,7.216,15.579
		c-0.489,5.735-2.273,11.909-7.4,15.136c-5.113,3.215-11.507,3.976-16.371,7.606c-2.173,1.622-2.707,3.194-2.959,5.784
		c-0.141,1.438-0.574,2.821-1.097,4.158c-0.924,2.361-2.304,4.816-4.392,6.328c-0.263,0.192-0.625-0.015-0.712-0.289
		c-1.049-3.353-2.245-6.987-5.038-9.325c-3.008-2.518-6.938-3.895-10.85-4.022c-5.72-0.185-11.322,1.447-16.28,4.23
		c9.744-3.204,25.479-5.56,25.991,7.231c0.106,2.618-0.369,5.958-3.499,6.419c-1.694,0.25-3.628-0.523-5.316-0.597
		c-2.667-0.115-5.335-0.025-7.991,0.25c-3.306,0.345-7.135,1.621-10.484,1.214c-1.459-0.178-2.523-1.111-3.37-2.254
		c0.54,2.506,1.633,4.794,4.107,5.944c1.609,0.748,3.73,0.326,5.468-0.073c-0.045,0.107-0.059,0.213-0.013,0.289
		c2.217,3.628,6.017,3.751,9.903,3.201c4.933,3.677,12.939,2.626,18.176-0.075c2.876-1.483,5.686-3.086,7.73-5.628
		c2.512-3.126,3.465-7.639,5.475-11.111c0.072-0.125,0.142-0.254,0.212-0.381c6,2.616,10.465,7.432,14.141,12.975
		c0.851,4.563,1.006,9.417,1.648,13.982c0.186,1.328,0.332,2.657,0.455,3.987c2.692,0.916,4.352,3.269,5.499,5.771
		c1.419,3.09,2.548,6.163,4.24,9.135c2.218,3.898,3.423,7.534,3.806,12.009c0.403,4.711,0.388,9.459,1.061,14.146
		c0.066,0.456-0.432,0.838-0.811,0.472c-1.304-1.261-2.639-2.246-4.263-2.883c2.233,4.224,5.42,7.767,6.167,12.675
		c0.676,4.448-0.653,9.018-1.699,13.415c0.618-0.875,1.283-1.716,1.978-2.553c0.305-0.366,0.784-0.026,0.828,0.343
		c0.504,4.21,0.241,8.423,0.146,12.649c-0.085,3.704-0.566,8.597,1.447,11.877c1.268,2.063,3.488,4.367,3.207,6.973
		c-0.205,1.896-1.98,3.663-3.304,5.246c0.912-0.282,1.81-0.604,2.74-0.837c0.303-0.077,0.618,0.145,0.614,0.467
		c-0.024,2.629-0.243,5.24-0.527,7.848c1.586-0.521,3.073-1.305,4.157-2.482c1.87-2.031,0.462-5.788,0.245-8.101
		c-0.006-0.057-0.029-0.084-0.044-0.124c0.68-1.11,1.196-2.008,0.966-3.54c-0.416-2.791-2.275-5.763-3.225-8.427
		c-2.724-7.644-3.912-15.721-3.262-23.818c1.063-2.194,2.717-5.214,2.302-7.468c-0.705-3.827-2.504-7.379-2.94-11.233
		c-1.013-8.959-0.013-18.072-1.023-27.01c4.257,3.983,9.281,7.068,15.027,8.578c0.074,0.019,0.152-0.003,0.228-0.045
		c0.013,0.04,0.026,0.08,0.038,0.121c0.026,0.086,0.051,0.171,0.078,0.258c-0.22-1.921-0.495-3.836-0.929-5.746
		c-0.945-4.168-1.843-8.347-2.683-12.538c-0.793-3.971-1.43-8.111-1.536-12.165c-0.102-3.842,0.324-7.709-0.129-11.53
		c-1.912,3.52-1.972,7.768-2.296,11.692c-0.46,5.585-0.599,11.156,0.468,16.684c0.07,0.369-0.337,0.828-0.712,0.547
		c-6.699-4.994-12.095-11.636-15.857-19.088c-3.277-6.493-8.126-13.711-7.936-21.287c0.078-3.122,1.036-5.266,3.729-6.976
		c2.298-1.458,4.759-2.604,7.012-4.143c2.489-1.701,4.939-3.519,7.122-5.606c0.509-0.488,1.131-1.064,1.739-1.703
		c1.027-3.02,1.737-6.198,2.675-9.16c0.121-0.381,0.682-0.504,0.887-0.116c2.097,3.973,1.413,8.566,0.873,12.842
		c-0.494,3.922-1.28,7.667-2.775,11.242c1.853-2.272,3.427-4.76,5.003-7.246c1.923-3.029,3.071-6.499,5.066-9.477
		c3.24-4.837,9.046-6.174,14.473-7.127c2.804-0.493,5.693-0.855,8.453,0.101c2.919,1.012,5.398,2.804,7.76,4.76
		c2.902,2.403,5.499,5.079,7.822,8.048c2.133,2.73,3.517,5.93,5.532,8.73c0.04-4.195-2.207-8.059-2.51-12.253
		c-0.019-0.264,0.235-0.484,0.485-0.485c4.06-0.009,8.114,2.354,12.045,3.268c5.02,1.166,10.086,2.105,15.173,2.915
		c5.46,0.868,10.062-0.93,15.092-2.756c4.932-1.792,9.888-3.52,14.88-5.14c4.298-1.393,8.906-3.268,13.504-2.696
		c3.496,0.435,6.298,3.451,8.23,6.163c2.452,3.441,4.755,7.243,6.381,11.271c7.131,7.476,10.996,17.655,11.555,28.078
		c0.379,7.101-0.831,13.619-2.683,20.424c-1.317,4.833-0.385,8.618,1.268,13.211c1.428,3.977,2.683,7.97,2.527,12.241
		c-0.019,0.494-0.637,0.644-0.904,0.244c-0.549-0.817-1.067-1.652-1.591-2.48c0.765,3.153,1.493,6.321,1.79,9.547
		c0.182,1.962,0.472,4.279-0.108,6.208c-0.481,1.602-1.33,2.982-2.173,4.394c1.551-0.665,2.84-1.873,4.602-2.07
		c0.245-0.027,0.51,0.242,0.485,0.485c-0.423,4.137-2.04,7.996-2.605,12.092c-0.677,4.91-1.601,9.811-2.181,14.73
		c-0.758,6.429-1.436,12.431-5.149,17.802c1.1-0.165,2.201-0.346,3.306-0.49c0.307-0.04,0.561,0.341,0.468,0.614
		c-0.961,2.828-1.726,5.715-2.706,8.534c0.557-0.085,1.046-0.169,1.396-0.212c2.56-0.32,6.106-1.012,7.764-3.145
		c1.19-1.531,1.051-3.865,0.614-5.911c-1.927-6.207-0.809-12.543-0.011-18.962c0.197-4.809,0.426-9.659,1.086-14.415
		c0.371-2.671,0.995-5.378,1.754-8.047c-0.04-0.085-0.063-0.182-0.042-0.294c0.222-1.18,0.756-2.456,1.301-3.764
		c0.335-1.003,0.68-1.999,1.035-2.974c0.015-0.045,0.026-0.083,0.042-0.128c-0.017,0.142-0.028,0.286-0.045,0.429
		C273.242,161.545,273.49,160.078,273.071,158.721z"/>
	<path style="fill:#BBBDBE;" d="M251.68,150.676c-1.964-2.75-5.026-4.701-7.677-6.749c-4.833-3.734-10.107-7.408-12.756-13.127
		c-1.485-3.212-3.004-6.427-4.348-9.702c-1.146-2.795-2.669-6.09-2.764-9.163c-0.155-5.092,4.698-8.205,6.93-12.362
		c-4.901,1.532-9.181,4.336-13.601,6.902c-4.403,2.556-9.181,4.554-14.072,5.961c-9.162,2.634-19.203,4.059-28.736,3.225
		c-8.613-0.754-17.53-3.266-24.061-9.21c-4.607-4.195-7.616-11.13-12.847-14.729c4.209,8.244,4.971,18.075,3.838,27.184
		c-0.754,6.067-3.16,11.995-3.361,18.092c-0.235,7.124,1.277,14.157,1.114,21.28c-0.012,0.521-0.624,0.612-0.904,0.245
		c-0.482-0.632-0.904-1.301-1.294-1.988c0.218,1.105,0.419,2.215,0.572,3.335c0.788,5.712,0.524,11.975-3.041,16.682
		c1.246-0.203,2.419-0.525,3.613-1.071c0.339-0.156,0.709,0.029,0.73,0.418c0.201,3.649-0.042,7.274-0.322,10.913
		c-0.292,3.756-0.872,7.859-0.218,11.603c0.451,2.576,1.396,5.686,0.324,8.229c-0.866,2.058-2.329,3.734-3.427,5.648
		c1.084-0.193,2.141-0.451,3.192-0.809c0.276-0.095,0.648,0.161,0.614,0.468c-0.237,2.087,0.638,5.473-1.645,6.708
		c-1.879,1.018-5.07,0.471-7.085,0.243c-0.161-0.018-0.299-0.094-0.389-0.21c-0.005,0.451,0.027,0.9,0.159,1.337
		c0.559,1.866,6.934,0.781,8.128,0.661c2.396-0.239,6.682-0.953,8.379-2.853c1.796-2.01,0.995-4.603,0.157-6.894
		c-0.021-0.057-0.055-0.085-0.087-0.118c0.169-0.213,0.305-0.426,0.393-0.609c0.295-0.622,0.434-1.191,0.348-1.88
		c-0.085-0.704-0.394-1.313-0.589-1.979c-0.663-5.337-2.2-10.427-3.014-15.737c-0.768-4.996-1.595-11.26-0.826-16.42
		c0.781-1.534,1.256-2.898,1.572-4.596c0.54-2.883-1.583-5.329-1.466-8.179c0.243-5.903-0.199-11.83-0.526-17.726
		c-0.103-1.846-0.171-3.684-0.174-5.52c2.472,0.677,5.284,0.445,7.796,0.274c4.411-0.301,8.789,0.194,13.201-0.099
		c7.945-0.525,15.512-0.272,23.361-2.081c1.624-0.374,3.063-0.895,4.392-1.517c0.017,0.079,0.066,0.143,0.178,0.167
		c2.593,0.559,4.888,0.904,7.345,1.77c-0.046-0.006-0.091-0.012-0.136-0.017c0.576,0.967,1.208,1.894,1.929,2.759
		c2.256,2.706,4.886,4.883,7.675,6.837c-0.004-0.031-0.013-0.062-0.017-0.094c-0.125-1.048-0.017-3.126,1.218-3.584
		c0.686-0.254,1.432-0.113,2.15-0.162c2.046-0.14,4.062-0.45,6.068-0.869c4.052-0.846,9.713-2.272,12.868,1.334
		c2.77,3.169,3.475,8.583,3.537,12.63c0.008,0.512-0.642,0.62-0.904,0.245c-0.958-1.372-2.266-2.254-3.669-3.012
		c1.932,2.596,2.904,6.212,3.329,9.109c0.889,6.058-3.622,11.261-3.048,17.286c0.706,7.416,1.345,14.823,1.544,22.286
		c0.055,2.084,0.691,4.787-0.663,6.591c-0.693,0.922-1.686,1.645-2.713,2.313c0.574-0.104,1.154-0.179,1.76-0.173
		c0.256,0.003,0.495,0.22,0.485,0.485c-0.12,3.219-1.302,6.243-1.605,9.433c2.196-0.422,4.577-1.206,5.849-2.843
		c1.19-1.531,1.051-3.865,0.614-5.911c-1.927-6.207-0.809-12.543-0.011-18.962c0.197-4.808,0.426-9.658,1.085-14.415
		c0.372-2.671,0.995-5.378,1.754-8.047c-0.04-0.085-0.063-0.182-0.041-0.295c0.222-1.18,0.756-2.456,1.301-3.763
		c0.335-1.003,0.68-1.999,1.035-2.975c0.015-0.045,0.026-0.083,0.042-0.128c-0.017,0.142-0.028,0.286-0.046,0.429
		c0.481-1.484,0.729-2.952,0.311-4.308c-0.119-0.387-0.388-1.014-0.553-1.648c-0.885-1.189-1.434-2.455-1.438-4.33
		c-0.005-2.776,0.114-5.542,0.256-8.311c3.509,2.721,7.379,4.933,11.165,7.278c0.309,0.333,0.623,0.663,0.955,0.989
		c1.417,1.392,2.088,2.891,2.544,4.55C253.332,154.987,253.016,152.545,251.68,150.676z"/>
</g>
</svg>
